<?xml version="1.0" encoding="UTF-8" standalone="no"?>
<!-- Created with Inkscape (http://www.inkscape.org/) -->

<svg
   width="210mm"
   height="297mm"
   viewBox="0 0 210 297"
   version="1.1"
   id="svg5"
   inkscape:version="1.1 (c68e22c387, 2021-05-23)"
   sodipodi:docname="aliens_5.svg"
   xmlns:inkscape="http://www.inkscape.org/namespaces/inkscape"
   xmlns:sodipodi="http://sodipodi.sourceforge.net/DTD/sodipodi-0.dtd"
   xmlns:xlink="http://www.w3.org/1999/xlink"
   xmlns="http://www.w3.org/2000/svg"
   xmlns:svg="http://www.w3.org/2000/svg">
  <sodipodi:namedview
     id="namedview7"
     pagecolor="#ffffff"
     bordercolor="#666666"
     borderopacity="1.0"
     inkscape:pageshadow="2"
     inkscape:pageopacity="0.0"
     inkscape:pagecheckerboard="0"
     inkscape:document-units="mm"
     showgrid="false"
     inkscape:zoom="0.35723204"
     inkscape:cx="818.79553"
     inkscape:cy="583.65425"
     inkscape:window-width="1920"
     inkscape:window-height="991"
     inkscape:window-x="-9"
     inkscape:window-y="-9"
     inkscape:window-maximized="1"
     inkscape:current-layer="layer3" />
  <defs
     id="defs2">
    <linearGradient
       inkscape:collect="always"
       id="linearGradient13704">
      <stop
         style="stop-color:#e9ddaf;stop-opacity:1;"
         offset="0"
         id="stop13700" />
      <stop
         style="stop-color:#e9ddaf;stop-opacity:0;"
         offset="1"
         id="stop13702" />
    </linearGradient>
    <inkscape:path-effect
       effect="fillet_chamfer"
       id="path-effect13679"
       is_visible="true"
       lpeversion="1"
       satellites_param="F,0,0,1,0,17.727083,0,1 @ F,0,0,1,0,17.727083,0,1 @ F,0,0,1,0,17.727083,0,1 @ F,0,0,1,0,17.727083,0,1"
       unit="px"
       method="auto"
       mode="F"
       radius="67"
       chamfer_steps="1"
       flexible="false"
       use_knot_distance="true"
       apply_no_radius="true"
       apply_with_radius="true"
       only_selected="false"
       hide_knots="false" />
    <inkscape:path-effect
       effect="fillet_chamfer"
       id="path-effect13624"
       is_visible="true"
       lpeversion="1"
       satellites_param="F,0,0,1,0,3.175,0,1 @ F,0,0,1,0,3.175,0,1 @ F,0,0,1,0,3.175,0,1 @ F,0,0,1,0,3.175,0,1"
       unit="px"
       method="auto"
       mode="F"
       radius="12"
       chamfer_steps="1"
       flexible="false"
       use_knot_distance="true"
       apply_no_radius="true"
       apply_with_radius="true"
       only_selected="false"
       hide_knots="false" />
    <inkscape:path-effect
       effect="fillet_chamfer"
       id="path-effect13605"
       is_visible="true"
       lpeversion="1"
       satellites_param="F,0,0,1,0,3.175,0,1 @ F,0,0,1,0,3.175,0,1 @ F,0,0,1,0,3.175,0,1 @ F,0,0,1,0,3.175,0,1"
       unit="px"
       method="auto"
       mode="F"
       radius="12"
       chamfer_steps="1"
       flexible="false"
       use_knot_distance="true"
       apply_no_radius="true"
       apply_with_radius="true"
       only_selected="false"
       hide_knots="false" />
    <inkscape:path-effect
       effect="fillet_chamfer"
       id="path-effect13586"
       is_visible="true"
       lpeversion="1"
       satellites_param="F,0,0,1,0,3.175,0,1 @ F,0,0,1,0,3.175,0,1 @ F,0,0,1,0,3.175,0,1 @ F,0,0,1,0,3.175,0,1"
       unit="px"
       method="auto"
       mode="F"
       radius="12"
       chamfer_steps="1"
       flexible="false"
       use_knot_distance="true"
       apply_no_radius="true"
       apply_with_radius="true"
       only_selected="false"
       hide_knots="false" />
    <inkscape:path-effect
       effect="fillet_chamfer"
       id="path-effect13567"
       is_visible="true"
       lpeversion="1"
       satellites_param="F,0,0,1,0,3.175,0,1 @ F,0,0,1,0,3.175,0,1 @ F,0,0,1,0,3.175,0,1 @ F,0,0,1,0,3.175,0,1"
       unit="px"
       method="auto"
       mode="F"
       radius="12"
       chamfer_steps="1"
       flexible="false"
       use_knot_distance="true"
       apply_no_radius="true"
       apply_with_radius="true"
       only_selected="false"
       hide_knots="false" />
    <inkscape:path-effect
       effect="fillet_chamfer"
       id="path-effect13459"
       is_visible="true"
       lpeversion="1"
       satellites_param="F,0,0,1,0,3.175,0,1 @ F,0,0,1,0,3.175,0,1 @ F,0,0,1,0,3.175,0,1 @ F,0,0,1,0,3.175,0,1"
       unit="px"
       method="auto"
       mode="F"
       radius="12"
       chamfer_steps="1"
       flexible="false"
       use_knot_distance="true"
       apply_no_radius="true"
       apply_with_radius="true"
       only_selected="false"
       hide_knots="false" />
    <inkscape:path-effect
       effect="fillet_chamfer"
       id="path-effect3540"
       is_visible="true"
       lpeversion="1"
       satellites_param="F,0,0,1,0,17.727083,0,1 @ F,0,0,1,0,17.727083,0,1 @ F,0,0,1,0,17.727083,0,1 @ F,0,0,1,0,17.727083,0,1"
       unit="px"
       method="auto"
       mode="F"
       radius="67"
       chamfer_steps="1"
       flexible="false"
       use_knot_distance="true"
       apply_no_radius="true"
       apply_with_radius="true"
       only_selected="false"
       hide_knots="false" />
    <inkscape:path-effect
       effect="fillet_chamfer"
       id="path-effect2313"
       is_visible="true"
       lpeversion="1"
       satellites_param="F,0,0,1,0,17.727083,0,1 @ F,0,0,1,0,17.727083,0,1 @ F,0,0,1,0,17.727083,0,1 @ F,0,0,1,0,17.727083,0,1"
       unit="px"
       method="auto"
       mode="F"
       radius="67"
       chamfer_steps="1"
       flexible="false"
       use_knot_distance="true"
       apply_no_radius="true"
       apply_with_radius="true"
       only_selected="false"
       hide_knots="false" />
    <inkscape:path-effect
       effect="fillet_chamfer"
       id="path-effect848"
       is_visible="true"
       lpeversion="1"
       satellites_param="F,0,0,1,0,17.727083,0,1 @ F,0,0,1,0,17.727083,0,1 @ F,0,0,1,0,17.727083,0,1 @ F,0,0,1,0,17.727083,0,1"
       unit="px"
       method="auto"
       mode="F"
       radius="67"
       chamfer_steps="1"
       flexible="false"
       use_knot_distance="true"
       apply_no_radius="true"
       apply_with_radius="true"
       only_selected="false"
       hide_knots="false" />
    <radialGradient
       inkscape:collect="always"
       xlink:href="#linearGradient13704"
       id="radialGradient13706"
       cx="56.844764"
       cy="128.31733"
       fx="56.844764"
       fy="128.31733"
       r="47.031174"
       gradientTransform="matrix(1.8129921,0,0,1.1645345,3.6868401,-25.147665)"
       gradientUnits="userSpaceOnUse" />
  </defs>
  <g
     inkscape:groupmode="layer"
     id="layer4"
     inkscape:label="Layer -2" />
  <g
     inkscape:groupmode="layer"
     id="layer2"
     inkscape:label="Layer -1" />
  <g
     inkscape:label="Layer 1"
     inkscape:groupmode="layer"
     id="layer1" />
  <g
     inkscape:groupmode="layer"
     id="layer3"
     inkscape:label="Layer 2">
    <g
       id="g873"
       inkscape:export-filename="C:\Users\Gar-m\Desktop\unity_vectors\alien_5\alien_five.png"
       inkscape:export-xdpi="96"
       inkscape:export-ydpi="96">
      <g
         id="g856"
         inkscape:export-filename="C:\Users\Gar-m\Desktop\unity_vectors\alien_5\two.png"
         inkscape:export-xdpi="96"
         inkscape:export-ydpi="96">
        <path
           style="fill:#916f6f;fill-opacity:1;stroke:#c8b7b7;stroke-width:2.10255;stroke-linecap:round;stroke-linejoin:round;stroke-miterlimit:4;stroke-dasharray:none;stroke-opacity:1;paint-order:stroke fill markers"
           id="rect11171"
           width="5.3697004"
           height="29.99626"
           x="84.61908"
           y="142.01933"
           inkscape:path-effect="#path-effect13459"
           d="m 87.79408,142.01933 a 2.7292247,2.7292247 55.346057 0 1 2.1947,3.175 v 23.64626 a 3.175,3.175 135 0 1 -3.175,3.175 2.7292247,2.7292247 55.346057 0 1 -2.1947,-3.175 v -23.64626 a 3.175,3.175 135 0 1 3.175,-3.175 z"
           sodipodi:type="rect" />
        <path
           style="fill:#916f6f;fill-opacity:1;stroke:#c8b7b7;stroke-width:2.10255;stroke-linecap:round;stroke-linejoin:round;stroke-miterlimit:4;stroke-dasharray:none;stroke-opacity:1;paint-order:stroke fill markers"
           id="rect11171-1"
           width="5.3697004"
           height="29.99626"
           x="95.636223"
           y="153.86971"
           inkscape:path-effect="#path-effect13567"
           sodipodi:type="rect"
           d="m 98.811223,153.86971 a 2.7292247,2.7292247 55.346057 0 1 2.194697,3.175 v 23.64625 a 3.175,3.175 135 0 1 -3.174997,3.175 2.7292247,2.7292247 55.346057 0 1 -2.1947,-3.175 v -23.64625 a 3.175,3.175 135 0 1 3.175,-3.175 z" />
        <path
           style="fill:#916f6f;fill-opacity:1;stroke:#c8b7b7;stroke-width:2.10255;stroke-linecap:round;stroke-linejoin:round;stroke-miterlimit:4;stroke-dasharray:none;stroke-opacity:1;paint-order:stroke fill markers"
           id="rect11171-0"
           width="5.3697004"
           height="29.99626"
           x="106.37563"
           y="147.94452"
           inkscape:path-effect="#path-effect13586"
           sodipodi:type="rect"
           d="m 109.55063,147.94452 a 2.7292247,2.7292247 55.346057 0 1 2.1947,3.175 v 23.64626 a 3.175,3.175 135 0 1 -3.175,3.175 2.7292247,2.7292247 55.346057 0 1 -2.1947,-3.175 l 0,-23.64626 a 3.175,3.175 135 0 1 3.175,-3.175 z" />
        <path
           style="fill:#916f6f;fill-opacity:1;stroke:#c8b7b7;stroke-width:2.10255;stroke-linecap:round;stroke-linejoin:round;stroke-miterlimit:4;stroke-dasharray:none;stroke-opacity:1;paint-order:stroke fill markers"
           id="rect11171-3"
           width="5.3697004"
           height="29.99626"
           x="118.41116"
           y="154.79552"
           inkscape:path-effect="#path-effect13605"
           sodipodi:type="rect"
           d="m 121.58616,154.79552 a 2.7292247,2.7292247 55.346057 0 1 2.1947,3.175 v 23.64626 a 3.175,3.175 135 0 1 -3.175,3.175 2.7292247,2.7292247 55.346057 0 1 -2.1947,-3.175 v -23.64626 a 3.175,3.175 135 0 1 3.175,-3.175 z" />
        <path
           style="fill:#916f6f;fill-opacity:1;stroke:#c8b7b7;stroke-width:2.10255;stroke-linecap:round;stroke-linejoin:round;stroke-miterlimit:4;stroke-dasharray:none;stroke-opacity:1;paint-order:stroke fill markers"
           id="rect11171-4"
           width="5.3697004"
           height="29.99626"
           x="126.92863"
           y="138.13092"
           inkscape:path-effect="#path-effect13624"
           sodipodi:type="rect"
           d="m 130.10363,138.13092 a 2.7292247,2.7292247 55.346057 0 1 2.1947,3.175 v 23.64626 a 3.175,3.175 135 0 1 -3.175,3.175 2.7292247,2.7292247 55.346057 0 1 -2.1947,-3.175 l 0,-23.64626 a 3.175,3.175 135 0 1 3.175,-3.175 z" />
      </g>
      <g
         id="g13760"
         inkscape:export-filename="C:\Users\Gar-m\Desktop\unity_vectors\alien_5\one.png"
         inkscape:export-xdpi="96"
         inkscape:export-ydpi="96">
        <path
           style="fill:url(#radialGradient13706);fill-opacity:1;stroke:none;stroke-width:3.405;stroke-linecap:round;stroke-linejoin:round;stroke-opacity:1;paint-order:stroke fill markers"
           id="rect846-0-7"
           width="170.53429"
           height="109.53886"
           x="21.478802"
           y="69.512886"
           inkscape:path-effect="#path-effect13679"
           sodipodi:type="rect"
           d="M 39.205885,69.512886 H 174.28601 a 17.727083,17.727083 45 0 1 17.72708,17.727083 l 0,74.084691 a 17.727083,17.727083 135 0 1 -17.72708,17.72708 H 39.205885 A 17.727083,17.727083 45 0 1 21.478802,161.32466 V 87.239969 A 17.727083,17.727083 135 0 1 39.205885,69.512886 Z" />
        <g
           id="g13749">
          <path
             style="fill:#e9ddaf;stroke:#f4eed7;stroke-width:3.405;stroke-linecap:round;stroke-linejoin:round;stroke-opacity:1;paint-order:stroke fill markers"
             id="rect846-0"
             width="94.062347"
             height="62.955112"
             x="51.47506"
             y="96.65461"
             inkscape:path-effect="#path-effect2313"
             sodipodi:type="rect"
             d="m 69.202143,96.65461 h 58.608177 a 17.727083,17.727083 45 0 1 17.72709,17.72708 v 27.50095 a 17.727083,17.727083 135 0 1 -17.72709,17.72708 H 69.202143 A 17.727083,17.727083 45 0 1 51.47506,141.88264 l 0,-27.50095 A 17.727083,17.727083 135 0 1 69.202143,96.65461 Z" />
          <path
             style="fill:#e9ddaf;fill-opacity:1;stroke:#f4eed7;stroke-width:3.405;stroke-linecap:round;stroke-linejoin:round;stroke-opacity:1;paint-order:stroke fill markers"
             id="rect846-0-4"
             width="94.062347"
             height="62.955112"
             x="68.880295"
             y="96.654617"
             inkscape:path-effect="#path-effect3540"
             sodipodi:type="rect"
             d="m 86.607378,96.654617 h 58.608182 a 17.727083,17.727083 45 0 1 17.72708,17.727083 v 27.50095 a 17.727083,17.727083 135 0 1 -17.72708,17.72708 H 86.607378 A 17.727083,17.727083 45 0 1 68.880295,141.88265 V 114.3817 A 17.727083,17.727083 135 0 1 86.607378,96.654617 Z" />
          <path
             style="fill:#916f6f;stroke:#c8b7b7;stroke-width:3.405;stroke-linecap:round;stroke-linejoin:round;stroke-opacity:1;paint-order:stroke fill markers"
             id="rect846"
             width="94.062347"
             height="62.955112"
             x="59.992519"
             y="96.65461"
             inkscape:path-effect="#path-effect848"
             d="m 77.719602,96.65461 h 58.608178 a 17.727083,17.727083 45 0 1 17.72709,17.72708 v 27.50095 a 17.727083,17.727083 135 0 1 -17.72709,17.72708 H 77.719602 A 17.727083,17.727083 45 0 1 59.992519,141.88264 V 114.38169 A 17.727083,17.727083 135 0 1 77.719602,96.65461 Z"
             sodipodi:type="rect" />
          <path
             style="fill:none;fill-opacity:1;stroke:#552200;stroke-width:2.5;stroke-linecap:round;stroke-linejoin:round;stroke-miterlimit:4;stroke-dasharray:none;stroke-opacity:1;paint-order:stroke fill markers"
             id="path9108"
             sodipodi:type="arc"
             sodipodi:cx="106.0053"
             sodipodi:cy="91.007172"
             sodipodi:rx="5.1845384"
             sodipodi:ry="4.6290522"
             sodipodi:start="6.2598503"
             sodipodi:end="6.2315934"
             sodipodi:open="true"
             sodipodi:arc-type="arc"
             d="m 111.18843,90.899162 a 5.1845384,4.6290522 0 0 1 -5.02555,4.734923 5.1845384,4.6290522 0 0 1 -5.33848,-4.453534 5.1845384,4.6290522 0 0 1 4.95012,-4.797843 5.1845384,4.6290522 0 0 1 5.40842,4.385748" />
          <path
             style="fill:#000000;fill-opacity:1;stroke:none;stroke-width:9.44882;stroke-linecap:round;stroke-linejoin:round;stroke-miterlimit:4;stroke-dasharray:none;stroke-opacity:1;paint-order:stroke fill markers"
             id="path10979"
             sodipodi:type="arc"
             sodipodi:cx="95.451057"
             sodipodi:cy="125.35473"
             sodipodi:rx="3.7958229"
             sodipodi:ry="3.7032416"
             sodipodi:start="6.2598503"
             sodipodi:end="6.2315934"
             sodipodi:open="true"
             sodipodi:arc-type="arc"
             d="m 99.245847,125.26832 a 3.7958229,3.7032416 0 0 1 -3.679417,3.78794 3.7958229,3.7032416 0 0 1 -3.908532,-3.56283 3.7958229,3.7032416 0 0 1 3.624196,-3.83827 3.7958229,3.7032416 0 0 1 3.959736,3.5086" />
          <path
             style="fill:#000000;fill-opacity:1;stroke:none;stroke-width:9.44882;stroke-linecap:round;stroke-linejoin:round;stroke-miterlimit:4;stroke-dasharray:none;stroke-opacity:1;paint-order:stroke fill markers"
             id="path10979-8"
             sodipodi:type="arc"
             sodipodi:cx="117.94826"
             sodipodi:cy="126.28055"
             sodipodi:rx="3.7958229"
             sodipodi:ry="3.7032416"
             sodipodi:start="6.2598503"
             sodipodi:end="6.2315934"
             sodipodi:open="true"
             sodipodi:arc-type="arc"
             d="m 121.74305,126.19414 a 3.7958229,3.7032416 0 0 1 -3.67942,3.78794 3.7958229,3.7032416 0 0 1 -3.90853,-3.56283 3.7958229,3.7032416 0 0 1 3.62419,-3.83827 3.7958229,3.7032416 0 0 1 3.95974,3.5086" />
        </g>
      </g>
    </g>
  </g>
</svg>
