<?xml version="1.0" encoding="UTF-8" standalone="no"?>
<!-- Created with Inkscape (http://www.inkscape.org/) -->

<svg
   width="210mm"
   height="297mm"
   viewBox="0 0 210 297"
   version="1.1"
   id="svg5"
   inkscape:version="1.1 (c68e22c387, 2021-05-23)"
   sodipodi:docname="aliens_4.svg"
   xmlns:inkscape="http://www.inkscape.org/namespaces/inkscape"
   xmlns:sodipodi="http://sodipodi.sourceforge.net/DTD/sodipodi-0.dtd"
   xmlns:xlink="http://www.w3.org/1999/xlink"
   xmlns="http://www.w3.org/2000/svg"
   xmlns:svg="http://www.w3.org/2000/svg">
  <sodipodi:namedview
     id="namedview7"
     pagecolor="#ffffff"
     bordercolor="#666666"
     borderopacity="1.0"
     inkscape:pageshadow="2"
     inkscape:pageopacity="0.0"
     inkscape:pagecheckerboard="0"
     inkscape:document-units="mm"
     showgrid="false"
     inkscape:zoom="0.5052024"
     inkscape:cx="105.89815"
     inkscape:cy="305.81802"
     inkscape:window-width="1920"
     inkscape:window-height="991"
     inkscape:window-x="-9"
     inkscape:window-y="-9"
     inkscape:window-maximized="1"
     inkscape:current-layer="layer1" />
  <defs
     id="defs2">
    <linearGradient
       inkscape:collect="always"
       id="linearGradient4291">
      <stop
         style="stop-color:#aaaaff;stop-opacity:1;"
         offset="0"
         id="stop4287" />
      <stop
         style="stop-color:#aaaaff;stop-opacity:0;"
         offset="1"
         id="stop4289" />
    </linearGradient>
    <inkscape:path-effect
       effect="fillet_chamfer"
       id="path-effect2707"
       is_visible="true"
       lpeversion="1"
       satellites_param="F,0,0,1,0,3.175,0,1 @ F,0,0,1,0,3.175,0,1 @ F,0,0,1,0,3.175,0,1 @ F,0,0,1,0,3.175,0,1 @ F,0,0,1,0,3.175,0,1 @ F,0,0,1,0,3.175,0,1"
       unit="px"
       method="auto"
       mode="F"
       radius="12"
       chamfer_steps="1"
       flexible="false"
       use_knot_distance="true"
       apply_no_radius="true"
       apply_with_radius="true"
       only_selected="false"
       hide_knots="false" />
    <inkscape:path-effect
       effect="fillet_chamfer"
       id="path-effect1142"
       is_visible="true"
       lpeversion="1"
       satellites_param="F,0,0,1,0,3.175,0,1 @ F,0,0,1,0,3.175,0,1 @ F,0,0,1,0,3.175,0,1 @ F,0,0,1,0,3.175,0,1 @ F,0,0,1,0,3.175,0,1 @ F,0,0,1,0,3.175,0,1"
       unit="px"
       method="auto"
       mode="F"
       radius="12"
       chamfer_steps="1"
       flexible="false"
       use_knot_distance="true"
       apply_no_radius="true"
       apply_with_radius="true"
       only_selected="false"
       hide_knots="false" />
    <radialGradient
       inkscape:collect="always"
       xlink:href="#linearGradient4291"
       id="radialGradient4293"
       cx="82.581856"
       cy="201.08603"
       fx="82.581856"
       fy="201.08603"
       r="35.832365"
       gradientTransform="matrix(1.3893383,0,0,1.5767321,-23.840641,-214.69864)"
       gradientUnits="userSpaceOnUse" />
  </defs>
  <g
     inkscape:groupmode="layer"
     id="layer2"
     inkscape:label="Layer -1" />
  <g
     inkscape:groupmode="layer"
     id="layer3"
     inkscape:label="Layer 0" />
  <g
     inkscape:label="Layer 1"
     inkscape:groupmode="layer"
     id="layer1">
    <g
       id="g844"
       inkscape:export-filename="C:\Users\Gar-m\Desktop\unity_vectors\alien_4\one.png"
       inkscape:export-xdpi="96"
       inkscape:export-ydpi="96">
      <path
         style="fill:url(#radialGradient4293);fill-opacity:1;stroke:none;stroke-width:3.11836;stroke-linecap:butt;stroke-linejoin:miter;stroke-miterlimit:4;stroke-dasharray:none;stroke-opacity:1"
         d="m 43.266359,46.424511 95.007691,-0.569749 a 2.6808175,2.6808175 49.480267 0 1 2.66162,3.11419 l -14.40851,87.947838 a 13.459114,13.459114 86.030737 0 0 0.42781,6.16554 l 3.7773,12.1704 a 2.3583326,2.3583326 126.15305 0 1 -2.23377,3.05732 l -70.82603,0.55781 a 2.0560397,2.0560397 56.622807 0 1 -1.898877,-2.88229 l 4.651031,-10.59692 a 9.6631669,9.6631669 95.508032 0 0 0.579051,-6.00486 L 40.78839,49.541107 a 2.5556314,2.5556314 128.48781 0 1 2.477969,-3.116596 z"
         id="path1060-3"
         inkscape:path-effect="#path-effect2707"
         inkscape:original-d="m 40.091416,46.443551 101.357574,-0.607829 -15.43515,94.214298 5.65956,18.23502 -77.175832,0.60783 7.203081,-16.41152 z" />
      <path
         style="fill:#8080ff;fill-opacity:1;stroke:#aaaaff;stroke-width:3.405;stroke-linecap:round;stroke-linejoin:round;stroke-miterlimit:4;stroke-dasharray:none;stroke-opacity:1;paint-order:stroke fill markers"
         id="path4490"
         sodipodi:type="arc"
         sodipodi:cx="81.830856"
         sodipodi:cy="142.05836"
         sodipodi:rx="6.1536803"
         sodipodi:ry="5.6299629"
         sodipodi:start="6.2598503"
         sodipodi:end="6.2315934"
         sodipodi:open="true"
         sodipodi:arc-type="arc"
         d="m 87.982861,141.927 a 6.1536803,5.6299629 0 0 1 -5.964966,5.75873 6.1536803,5.6299629 0 0 1 -6.336401,-5.4165 6.1536803,5.6299629 0 0 1 5.875444,-5.83525 6.1536803,5.6299629 0 0 1 6.419411,5.33405" />
      <path
         style="fill:#8080ff;fill-opacity:1;stroke:#aaaaff;stroke-width:3.405;stroke-linecap:round;stroke-linejoin:round;stroke-miterlimit:4;stroke-dasharray:none;stroke-opacity:1;paint-order:stroke fill markers"
         id="path4490-8"
         sodipodi:type="arc"
         sodipodi:cx="104.21981"
         sodipodi:cy="142.1893"
         sodipodi:rx="6.1536803"
         sodipodi:ry="5.6299629"
         sodipodi:start="6.2598503"
         sodipodi:end="6.2315934"
         sodipodi:open="true"
         sodipodi:arc-type="arc"
         d="m 110.37182,142.05794 a 6.1536803,5.6299629 0 0 1 -5.96497,5.75872 6.1536803,5.6299629 0 0 1 -6.336402,-5.41649 6.1536803,5.6299629 0 0 1 5.875442,-5.83525 6.1536803,5.6299629 0 0 1 6.41941,5.33405" />
      <path
         style="fill:#8080ff;fill-opacity:1;stroke:#aaaaff;stroke-width:2.065;stroke-linecap:butt;stroke-linejoin:miter;stroke-miterlimit:4;stroke-dasharray:none;stroke-opacity:1"
         d="m 57.24229,72.937746 66.60394,-0.33809 a 2.6058918,2.6058918 50.331609 0 1 2.57164,3.101034 l -9.90308,51.16595 a 11.413712,11.413712 85.408863 0 0 0.48969,6.09808 l 1.88755,5.14786 a 2.2333171,2.2333171 124.74085 0 1 -2.08192,3.0021 l -49.198774,0.32799 a 1.915677,1.915677 58.512808 0 1 -1.713421,-2.79745 l 2.261524,-4.36151 a 8.2081819,8.2081819 96.260662 0 0 0.645847,-5.88706 L 54.882992,76.022303 a 2.4541213,2.4541213 127.41145 0 1 2.359298,-3.084557 z"
         id="path1060"
         inkscape:path-effect="#path-effect1142"
         inkscape:original-d="m 54.067331,72.953863 72.953859,-0.370324 -11.10972,57.400251 4.07357,11.10972 -55.548633,0.37033 5.18454,-9.99875 z" />
      <path
         style="fill:#000000;fill-opacity:1;stroke:none;stroke-width:7.80472;stroke-linecap:round;stroke-linejoin:round;stroke-miterlimit:4;stroke-dasharray:none;stroke-opacity:1;paint-order:stroke fill markers"
         id="path4339"
         sodipodi:type="arc"
         sodipodi:cx="84.842239"
         sodipodi:cy="102.91049"
         sodipodi:rx="4.1897402"
         sodipodi:ry="4.1897402"
         sodipodi:start="6.2598503"
         sodipodi:end="6.2315934"
         sodipodi:open="true"
         sodipodi:arc-type="arc"
         d="m 89.030839,102.81273 a 4.1897402,4.1897402 0 0 1 -4.061254,4.28557 4.1897402,4.1897402 0 0 1 -4.314146,-4.03088 4.1897402,4.1897402 0 0 1 4.000303,-4.342515 4.1897402,4.1897402 0 0 1 4.370663,3.969525" />
      <path
         style="fill:#000000;fill-opacity:1;stroke:none;stroke-width:7.80472;stroke-linecap:round;stroke-linejoin:round;stroke-miterlimit:4;stroke-dasharray:none;stroke-opacity:1;paint-order:stroke fill markers"
         id="path4339-7"
         sodipodi:type="arc"
         sodipodi:cx="99.244461"
         sodipodi:cy="102.91048"
         sodipodi:rx="4.1897402"
         sodipodi:ry="4.1897402"
         sodipodi:start="6.2598503"
         sodipodi:end="6.2315934"
         sodipodi:open="true"
         sodipodi:arc-type="arc"
         d="m 103.43306,102.81272 a 4.1897402,4.1897402 0 0 1 -4.061254,4.28556 4.1897402,4.1897402 0 0 1 -4.314145,-4.03088 4.1897402,4.1897402 0 0 1 4.000302,-4.342511 4.1897402,4.1897402 0 0 1 4.370667,3.969531" />
    </g>
  </g>
</svg>
